<svg id="图层_1" data-name="图层 1" xmlns="http://www.w3.org/2000/svg" viewBox="0 0 307.315 307.195"><defs><style>.cls-1{fill:#83f9af;}.cls-2{fill:#b0fbcc;}.cls-3{fill:#e0fceb;}.cls-4{fill:#222629;}.cls-5{fill:#85f8b1;}.cls-6{fill:#202126;}.cls-7{fill:#87feb4;}.cls-8{fill:#8bfeba;}.cls-9{fill:#88feb4;}.cls-10{fill:#89feb7;}.cls-11{fill:#1f1f24;}.cls-12{fill:#1b171f;}.cls-13{fill:#1c1a21;}.cls-14{fill:#497a5e;}.cls-15{fill:#86f8b3;}.cls-16{fill:#8afeb9;}.cls-17{fill:#89feb8;}.cls-18{fill:#8afeb8;}.cls-19{fill:#52906c;}.cls-20{fill:#1e1f24;}.cls-21{fill:#1b161f;}.cls-22{fill:#53936e;}.cls-23{fill:#1d1b22;}.cls-24{fill:#52916b;}.cls-25{fill:#1c1820;}.cls-26{fill:#88fab4;}.cls-27{fill:#87f7b3;}.cls-28{fill:#8df9b7;}.cls-29{fill:#293633;}.cls-30{fill:#202427;}.cls-31{fill:#1a141e;}.cls-32{fill:#508867;}.cls-33{fill:#63b583;}.cls-34{fill:#1d1c22;}.cls-35{fill:#83f1ae;}.cls-36{fill:#1e1d24;}.cls-37{fill:#1d1a21;}.cls-38{fill:#2e4039;}.cls-39{fill:#1e1c23;}.cls-40{fill:#1d1b23;}.cls-41{fill:#1d1b21;}.cls-42{fill:#579d73;}.cls-43{fill:#1c1921;}.cls-44{fill:#1b1820;}.cls-45{fill:#1d1a22;}.cls-46{fill:#8afeb7;}</style></defs><title>favicon</title><path class="cls-1" d="M294.6,242.4h16.2a2.767,2.767,0,0,0,3.6,0h2.4c1.76,1.164,3.833.857,5.745,1.058a151.532,151.532,0,0,1,57.879,18.279,12.293,12.293,0,0,1-1.372.515q-40.382,10.1-80.777,20.139c-1.758.435-2.461.836-2.013,2.916,2.039,9.462,3.862,18.971,5.762,28.462l.423,1.816c-.163,1.409.377,2.314,1.8,1.584,1.146-.588,3.606.466,3.21-2.332-.331-2.341-1.021-4.644-.815-7.049a13.277,13.277,0,0,0-.037-8.386c-.079-3.792,2.057-6.346,4.843-8.478a24.624,24.624,0,0,1,8.929-4.086c4.056-1.056,8.169-1.913,12.181-3.113,2.2-.659,3.025-.324,3.607,2.076,4.687,19.3,9.554,38.551,14.333,57.827,4.275,17.241,8.72,34.445,12.679,51.758,2.376,10.394-.308,15.416-9.682,20.454-2.493,1.34-.729,3.114-.614,4.7.17,2.34,1.738.642,2.308.5,7.631-1.83,15.224-3.819,22.826-5.768l1.418.644c-.354.9-2.448.118-1.877,1.693.39,1.075.628,2.546,2.664,2.319,1.472-.164,2.9.759,4.16,1.8,3.457,2.86,4.114,6.952,5.113,10.92,3.124,12.41,6.306,24.805,9.337,37.237.737,3.02,1.894,6.007,1.982,9.878-7.593-9.389-14.684-18.211-21.835-26.984q-12.155-14.911-24.392-29.752c-.589-.722-1.181-.491-1.773,0-4.611,1.1-9.212,2.257-13.842,3.273a2.622,2.622,0,0,0-2.149,2.076c-1-.889-2.042-.381-3.1-.116-12.76,3.194-25.5,6.456-38.3,9.486-2.332.552-3.271,1.314-2.555,3.637a1.332,1.332,0,0,0,1,1.536c.49.125.654-.231.734-.634l1.028-.14c1.267-.066,2.607.431,3.761-.5,1.164-.609,2.035.48,3.113.532,4.65.224,9.726,4.022,10.834,8.351,4.043,15.8,7.979,31.622,11.954,47.437q3.594,14.3,7.183,28.6-.012,3.279-.022,6.559c-1.485,6.725-6.671,9.287-12.507,11.119-1.672.3-1.566,1.205-.8,2.34a.444.444,0,0,1,.094.514L319.2,549c-3.579.864-7.213.551-10.835.506-2.169-1.47-4.345-.645-6.52-.017a40.232,40.232,0,0,1-9.69-.535c7.208-2.02,11.878-6.859,14.973-13.459.043-.09.333-.065.459-.086,1.36,2.4,1.771,5.5,5.019,6.388a3.7,3.7,0,0,0,.038.481c1.49.975,2.93,1.419,4.151-.4a12.627,12.627,0,0,0,2.531-1.415c3.865-3.511,7.061-7.449,7.613-12.924.216-.779,1.138-1.605.022-2.328-.964-.624-1.323.324-1.832.867a11.235,11.235,0,0,1-1.087.91c-.865,1.751-1.64,3.556-2.626,5.236a3.649,3.649,0,0,1-3.51,1.765c-1.339-.1-1.938-1.242-2.334-2.419-.221-.657-.438-1.319-.607-1.992-3.2-12.739-6.488-25.458-9.551-38.23-1.573-6.559-4.275-11.951-11.422-13.78a7.206,7.206,0,0,0-5.978-.029c-.562.344-1.39-.045-1.821.66a1.2,1.2,0,0,0-.563.116A18.54,18.54,0,0,0,275.4,482.4a13.449,13.449,0,0,0-3.607,3.578c-4.3,3.914-4.164,9.16-4.079,14.279a7.03,7.03,0,0,0,5.313,6.265c.876.852,2.282,0,3.032.8.631.674,1.15,1.2,1.908.507s0-1.447-.224-2.159l.575-.512c.626.151,1.384,1.02,1.808.291.261-.449-.339-1.4-.553-2.124a.6.6,0,0,1,.1-.534c1.688-.949,1.5-2.141.445-3.444q-.233-.066-.459-.153c-.332-1.833-1.757-3.128-2.371-4.822a7.727,7.727,0,0,0,0-5.958,8.431,8.431,0,0,1,6.973-5.462l5.709-.014c3.749,1.429,5.267,4.685,6.337,8.129.87,2.8,1,5.865,2.089,8.555.679,1.679-.01,2-1.013,2.58A75.175,75.175,0,0,0,280.071,515.4l-.562-.829c-.974-.7.109-2.912-2.328-2.7-3.8.323-6.539-1.889-8.776-4.682-7.124-8.892-12.728-18.84-19.437-28.021a1.228,1.228,0,0,1,.065-1.8c2.471-2.458,3.505-5.674,4.783-8.767.922-.983.469-2.189.535-3.311a8.09,8.09,0,0,1-.014-3.581c-.038-1.117.384-2.3-.495-3.293-1.486-5.474-3.4-10.76-6.725-15.432.294-.969,2.648-1.251,1.156-2.719-1.156-1.137-2.321-.4-3.106.841a26.564,26.564,0,0,0-7.574-3.131,6.966,6.966,0,0,0-5.989.013q-11.847,2.871-23.693,5.748c-1.928.471-2.816,1.456-1.483,3.384,1.043.812,2.266.368,3.408.486l.271.521c-.426.134-.978.162-.937.779.009.136.463.4.628.342.643-.21.288-.736.27-1.153a7.6,7.6,0,0,1,4.789,5.605c2.937,11.02,5.873,22.044,8.542,33.131,2.269,9.424,5.075,18.715,6.7,28.306.758,4.48.418,6.823-3.406,9.256-1.526.971-.538,1.72-.453,2.618a23.83,23.83,0,0,1-2.4-1.177,150.827,150.827,0,0,1-33.446-28.71c-5.743-6.621-11.172-13.5-15.329-21.283q18.144-.018,36.287-.05c1.162,0,2.422.357,3.442-.579l-.016-.642-.006.035c.877-2.613,1.22-5.214-.172-7.776l-2.238-.161c-.983-.73-2.1-.387-3.174-.4-4.16-.381-5.814-1.766-6.417-5.373-.053-1.046.319-2.163-.514-3.08l-.006-3.021c1.077-1.762.352-3.689.5-5.535.008-5.035,1.768-9.707,3.025-14.479q3.921-14.9,7.908-29.778c13.939,0,27.877.019,41.815-.022,1.589,0,2.969.078,3.618,1.8a4.61,4.61,0,0,1,.779,1.23c1.985,8.27,4.079,16.517,5.84,24.834,1.172,5.538,3.128,10.9,3.654,16.58l.039,10.274A8.056,8.056,0,0,1,264.9,465.6a18.688,18.688,0,0,1-6.232,1.454c-1.25,2.507.094,5.244-.7,7.792.88,1.418,2.309.93,3.531.932q25.248.042,50.5.019c.945-3.015,1.185-6.008-.272-8.949-4.274.308-7.545-1.859-10.089-4.817-6.511-7.57-9.673-16.695-11.429-26.38l.737-.053c5.425.02,10.345-2.334,15.557-3.318.725-.137.877-.7.728-1.382-.136-.624-.351-1.172-1.109-1.166-4.266.036-5.574-3.226-6.474-6.356-2.036-7.087-3.679-14.286-5.542-21.423-.369-1.412.1-1.969,1.435-2.29q8.287-1.992,16.542-4.118c1.368-.353,1.976-.011,2.308,1.391,1.7,7.179,3.637,14.305,5.16,21.519.674,3.192.991,6.688-2.741,8.679-.877.467-.582,1.16-.344,1.8.351.947,1.109.633,1.769.469q6.673-1.665,13.341-3.354c.772-.195,1.751-.278.964-1.491.008-1.4-.959-1.1-1.8-1.032-3.656-1.79-4.586-5.332-5.47-8.8q-4.1-16.05-8-32.148c-1.239-5.109-2.979-10.109-3.475-15.387a3.567,3.567,0,0,0,.009-4.2c-.075-1.5.838-2.369,1.957-3.12.753-.506.565-1.229.317-1.879-.281-.737-.942-.605-1.527-.46q-6.826,1.689-13.646,3.407c-.541.137-1.281.206-1.095,1.079.137.648.107,1.479,1.1,1.505,4.669.122,5.824,3.758,6.8,7.2,1.815,6.429,3.22,12.974,4.992,19.416.527,1.914-.1,2.413-1.753,2.787-3.793.86-7.558,1.844-11.33,2.8-6.568,1.66-6.607,1.676-8.219-4.924-1.395-5.713-3.207-11.336-4.019-17.179-.364-2.62-.314-5.254,2.2-7.013.73-.511,1.624-.753,1.148-2.008-.6-1.591-1.626-.666-2.463-.483-3.5.768-6.989,1.6-10.482,2.412-.769-1.5-3.785-.318-3.565-2.993.843,1.644,2.334,2.166,2.831.241.669-2.59,2.36-2.877,4.349-3.189l.235.111.254-.055,3.694.708a.894.894,0,0,0,.039.429,4.354,4.354,0,0,0-.585.042c-.257.052-.534.448-.34.444,2.229-.047,4.492.7,6.657-.035.521-.177-.307-.358-.528-.526q.123-.216.226-.442c9.939-1.562,16.487-7.7,17.357-16.271a8.838,8.838,0,0,0,.027-5.417,24.705,24.705,0,0,0-.394-2.94c-1.657-6.509-5.775-10.778-12.028-13.078-7.114-2.616-14.3-5.061-21.313-7.923-5.451-2.224-7.561-6.815-6.486-12.709a11.35,11.35,0,0,1,10.618-8.962c4.912-.34,8.686,1.767,11.72,5.44a25.616,25.616,0,0,1,3.837,7.075c.308.779.3,1.855,1.709,1.518,1.361-.326,1.064-1.212.848-2.084q-2.413-9.731-4.861-19.454c-.158-.627-.166-1.5-1.181-1.416-.825.073-1.58.278-1.641,1.353-.073,1.272-.482,2.345-1.884,2.709A5.892,5.892,0,0,0,282,289.2c-1.186.043-2.373.064-3.558.132-8.38.48-15.193,6.477-16.226,14.27a11.366,11.366,0,0,0,.026,6.581c.707,6.693,4.293,11.3,10.419,13.822,6.092,2.51,12.283,4.779,18.44,7.13A18.227,18.227,0,0,1,296.334,334c6.683,5.525,5.941,16.982-1.363,21.086a14.411,14.411,0,0,1-18.021-3.031,27.043,27.043,0,0,1-4.886-8.532c-.228-.595-.253-1.48-1.312-1.262-.845.174-1.538.468-1.428,1.526-.627-.028-.73-2.45-1.812-.4-.219-.655-.487-1.3-.652-1.967q-10.35-41.858-20.684-83.72c-.234-.95-.185-2.025-1.175-2.638,1.156-.426,2.321-.824,3.464-1.28a158.432,158.432,0,0,1,36.278-9.731C288.032,243.58,291.481,243.912,294.6,242.4ZM210.851,464.978c-.746-.374-1.085-.582-1.452-.719-.468-.174-.866.035-.763.517.061.285.5.548.827.692C209.626,465.54,209.916,465.324,210.851,464.978Z" transform="translate(-152.4 -242.4)"/><path class="cls-1" d="M173.386,472.915c-4.494-6.641-7.609-13.976-10.5-21.389a152.8,152.8,0,0,1-9.949-44.1c.009-1.041.4-2.149-.537-3.022V384.6c.762-.422.589-1.188.68-1.855.634-4.643,1.06-9.325,1.935-13.922,7.105-37.351,25.3-68.182,54.767-92.234A135.244,135.244,0,0,1,244.8,255.52c-.187.974-.316,1.963-.571,2.918q-21.139,79.147-42.334,158.28c-2.927,10.886-5.152,21.991-9.3,32.518-3.474,8.807-8.731,15.921-18.719,18.046C173.065,469.1,173.892,471.067,173.386,472.915Z" transform="translate(-152.4 -242.4)"/><path class="cls-2" d="M314.4,242.4a2.767,2.767,0,0,1-3.6,0Z" transform="translate(-152.4 -242.4)"/><path class="cls-3" d="M152.4,404.4c.934.873.546,1.981.537,3.022-.179,0-.358-.008-.537-.022Z" transform="translate(-152.4 -242.4)"/><path class="cls-4" d="M244.8,255.52a1.055,1.055,0,0,0,.2-.455c.99.612.941,1.687,1.175,2.637q10.338,41.862,20.684,83.72c.165.669.433,1.312.652,1.967,1.725,8.213,3.695,16.365,6.03,24.427,1.626,6.873,3.194,13.76,4.889,20.616q5.84,23.623,11.778,47.222c1.756,9.685,4.918,18.81,11.429,26.38,2.544,2.958,5.815,5.125,10.089,4.817.184,2.562.789,5.142-.33,7.648,0-5.639,0-5.639-.979-6.808,1.247,5.035.742,5.709-4.284,5.709q-21.738,0-43.476,0c-3.34,0-4.835-2.078-3.057-4.873,1.292-2.031-1.007-.79-.933-1.467A18.688,18.688,0,0,0,264.9,465.6a8.056,8.056,0,0,0,4.532-5.906,18.971,18.971,0,0,0-.039-10.274c-.526-5.677-2.482-11.042-3.654-16.58-1.761-8.317-3.855-16.564-5.84-24.834a4.61,4.61,0,0,0-.779-1.23,3.245,3.245,0,0,0,.035-2.332,2.009,2.009,0,0,0,.027-.579c-.767-.9-1.821-.659-2.788-.66q-20.008-.018-40.018,0c-.96,0-2.034-.264-2.712.778a1.988,1.988,0,0,0,.033.5.555.555,0,0,0-.01.512q-3.957,14.887-7.908,29.778c-1.257,4.772-3.017,9.444-3.025,14.479a13.277,13.277,0,0,0-.5,5.535l.006,3.021a4.583,4.583,0,0,0,.514,3.08c.6,3.607,2.257,4.992,6.418,5.373l2.565.628c.051.151.108.3.169.446a4.23,4.23,0,0,0-.543.234c-.043.025-.02.25-.02.25,3.019.181,2.363,2.449,2.14,4.15-.3,2.322-2.345,1.376-3.628,1.384-11.758.074-23.516.043-35.274.043-.446-1.937.836-4.015-.483-5.879-.079-.08-.159-.159-.239-.238,9.988-2.125,15.245-9.239,18.719-18.046,4.151-10.527,6.376-21.632,9.3-32.518q21.272-79.112,42.334-158.28C244.485,257.483,244.614,256.494,244.8,255.52ZM217.226,395.459a3.377,3.377,0,0,0,2.56.536q16.913.01,33.825,0a3.4,3.4,0,0,0,2.562-.532c.428-.379.619-.784.135-1.26q-8.991-37.128-18-74.248c-.132-.541.229-1.48-1.045-1.581L217.109,394.2C216.582,394.674,216.842,395.072,217.226,395.459Zm-16.06,62.716.209-.012v-4.827l-.209.017Z" transform="translate(-152.4 -242.4)"/><path class="cls-4" d="M380.424,261.737c2.15-.821,3.228.135,3.639,2.2.1.484.149.98.291,1.45,2.739,9.077,5.5,18.148,8.214,27.234.245.822,1.212,1.763-.164,2.587-2.324,1.392-4.168.788-5.111-1.8a62.394,62.394,0,0,0-5.32-11.694,12.686,12.686,0,0,0-11.488-6.335c-1.3,0-2.6,0-3.892,0a2.007,2.007,0,0,0-2.578-.185l1.559.3c-4.829,1.217-9.637,2.534-14.5,3.605-2.21.487-2.835,1.231-2.242,3.588q13.219,52.564,26.266,105.172a36.615,36.615,0,0,0,4.322,11.118c2.092,3.266,4.655,6,8.788,6.587a8.915,8.915,0,0,0,5.976,0c2.154,1.117,2.785,3.946,1.218,5.461a12.341,12.341,0,0,0-4.387,1.118l-13,3.139c-7.6,1.949-15.195,3.938-22.826,5.768-.57.137-2.138,1.835-2.308-.5-.115-1.584-1.879-3.358.614-4.7,9.374-5.038,12.058-10.06,9.682-20.454-3.959-17.313-8.4-34.517-12.679-51.758-4.779-19.276-9.646-38.53-14.333-57.827-.582-2.4-1.4-2.735-3.607-2.076-4.012,1.2-8.125,2.057-12.181,3.113a24.624,24.624,0,0,0-8.929,4.086c-2.786,2.132-4.922,4.686-4.843,8.478a18.484,18.484,0,0,0,.037,8.386c-.206,2.4.484,4.708.815,7.049.4,2.8-2.064,1.744-3.21,2.332-1.424.73-1.964-.175-1.8-1.584.394-.729,1.522-1.63-.423-1.816-1.9-9.491-3.723-19-5.762-28.462-.448-2.08.255-2.481,2.013-2.916q40.406-10.005,80.777-20.139A12.293,12.293,0,0,0,380.424,261.737ZM368.21,274.359a4.129,4.129,0,0,0,3.542,0Zm-3.486,124.975-.287-.108v3.053l.287-.023Z" transform="translate(-152.4 -242.4)"/><path class="cls-4" d="M336.822,428.378a2.622,2.622,0,0,1,2.149-2.076c4.63-1.016,9.231-2.171,13.842-3.273a1.038,1.038,0,0,0,1.773,0q12.2,14.873,24.392,29.752c7.151,8.773,14.242,17.595,21.835,26.984-.088-3.871-1.245-6.858-1.982-9.878-3.031-12.432-6.213-24.827-9.337-37.237-1-3.968-1.656-8.06-5.113-10.92-1.262-1.045-2.688-1.968-4.16-1.8-2.036.227-2.274-1.244-2.664-2.319-.571-1.575,1.523-.789,1.877-1.693,4.635-.561,9.058-2.022,13.55-3.192a10.049,10.049,0,0,0,3.916-1.042c2.065,1.251,2.367,2.772.616,3.727-2.806,1.532-3.709,4.043-3.892,6.954a25.291,25.291,0,0,0,.959,7.688q4.747,19.152,9.506,38.3,4.434,17.988,8.8,35.994c-.128.727-.033,1.531-.718,2.064l-54.906-64.472a6.245,6.245,0,0,0,.254,3.2q4.27,17.154,8.525,34.311c1.984,7.945,3.841,15.927,6.079,23.8,1.351,4.756,3.16,9.5,9.368,9.79,1.44.067,1.343,1.215,1.527,2.113.264,1.289-.925,1.126-1.564,1.291-5.319,1.37-10.657,2.668-15.987,4-.849.211-1.8.758-2.153-.625-.258-1.006-.947-2.088.66-2.733,1.822-.731,2.558-2.428,3.284-4.09a9.78,9.78,0,0,0,0-7.194q-8.477-34.124-16.955-68.247a9.835,9.835,0,0,0-10.535-7.737,3.876,3.876,0,0,1-2.571-.333Z" transform="translate(-152.4 -242.4)"/><path class="cls-4" d="M227.39,527.93q-.576-.465-1.152-.927c-.084-.9-1.072-1.645.454-2.616,3.824-2.433,4.164-4.776,3.406-9.256-1.624-9.591-4.43-18.882-6.7-28.306-2.669-11.087-5.6-22.111-8.542-33.131a7.6,7.6,0,0,0-4.789-5.605l.039.032-.271-.521c-1.018-.99-2.27-.341-3.408-.486-1.333-1.928-.445-2.913,1.483-3.384q11.843-2.891,23.693-5.748l5.989-.013a26.59,26.59,0,0,1,7.574,3.13l1.95,1.879c3.325,4.672,5.239,9.958,6.725,15.432l-.012,2.387a6.706,6.706,0,0,0-.046,6l.032,1.8c-1.278,3.093-2.312,6.309-4.783,8.767a1.228,1.228,0,0,0-.065,1.8c6.709,9.181,12.313,19.129,19.437,28.021,2.237,2.793,4.975,5,8.776,4.682,2.437-.207,1.354,2,2.328,2.7-3.949,1.052-7.928,2-11.832,3.2-1.93.591-2.988.192-4.157-1.5-6.173-8.956-12.5-17.809-18.768-26.7-4.26-6.039-4.245-5.978-11.242-4.143-1.776.465-2.17,1.117-1.7,2.892,1.886,7.136,3.6,14.316,5.422,21.47a22.515,22.515,0,0,0,2.812,6.9c1.208,1.846,2.806,3.252,5.082,3.231,1.39-.013,2.019.311,2.156,1.7.159,1.6-1.11,1.395-1.974,1.625C239.34,524.824,233.363,526.371,227.39,527.93Zm16.775-64.118a35.978,35.978,0,0,0-3.416-12.492c-1.875-4.076-4.69-7.044-9.336-7.816.395-.181.981.064,1.263-.693-.951,0-1.831-.02-2.708.014-.245.009-1-.05-.252.491a2.288,2.288,0,0,0,.861.185c-2.116.564-4.24,1.1-6.347,1.7-1.952.552-2.721,1.746-2.194,3.83,2.453,9.686,4.844,19.387,7.262,29.083a2.855,2.855,0,0,0,2.342,2.416c5.053.919,11.468-3.667,12.49-8.947A14.936,14.936,0,0,0,244.165,463.812Z" transform="translate(-152.4 -242.4)"/><path class="cls-4" d="M336.822,428.378l.378,1.108c-.084,1.7-1.089,2.31-2.65,2.852-5.351,1.862-9.791,4.748-10.531,11.067a8.774,8.774,0,0,0,.016,5.383c.168,1.075.253,2.171.515,3.222q8.658,34.825,17.365,69.637c2.57,10.228,7.362,13.753,17.921,12.756,2.961-.28,3.406.985,3.648,3.159-1.32.391-2.629.828-3.963,1.166q-19.257,4.878-38.52,9.726c-1.091.205-1.364-.66-1.767-1.353a.444.444,0,0,0-.094-.514c-.064-.894-.225-1.822.8-2.34,5.836-1.832,11.022-4.394,12.507-11.12.85-1.428.354-3.033.6-4.54a2.226,2.226,0,0,0,.529-1.936c-.022-.291.24-.847-.362-.785-.129.013-.19.692-.281,1.064q-.238-.174-.465-.361-3.591-14.3-7.183-28.6c-3.975-15.815-7.911-31.64-11.954-47.437-1.108-4.329-6.184-8.127-10.834-8.351-1.078-.052-1.949-1.141-3.113-.532a6.955,6.955,0,0,0-3.761.5l-1.028.14a1.777,1.777,0,0,1-1.735-.9c-.716-2.323.223-3.085,2.555-3.637,12.8-3.03,25.543-6.292,38.3-9.486C334.78,428,335.819,427.489,336.822,428.378Zm-35.487,12.273c-1.043-.231-1.734-.577-2.311.172A2.92,2.92,0,0,0,301.335,440.651Z" transform="translate(-152.4 -242.4)"/><path class="cls-1" d="M227.39,527.93c5.973-1.559,11.95-3.106,17.917-4.688.864-.23,2.133-.021,1.974-1.625-.137-1.391-.766-1.715-2.156-1.7-2.276.021-3.874-1.385-5.082-3.231a22.515,22.515,0,0,1-2.812-6.9c-1.818-7.154-3.536-14.334-5.422-21.47-.469-1.775-.075-2.427,1.7-2.892,7-1.835,6.982-1.9,11.242,4.143,6.272,8.888,12.595,17.741,18.768,26.7,1.169,1.7,2.227,2.1,4.157,1.5,3.9-1.2,7.883-2.148,11.832-3.2l.562.829c-2.647,3.735-5.849,7.173-6.44,12.01a14.017,14.017,0,0,0,.005,8.38c.7,5.748,4.277,9.314,9.056,11.973-7.387-.647-14.494-2.618-21.537-4.767A141.63,141.63,0,0,1,227.39,527.93Z" transform="translate(-152.4 -242.4)"/><path class="cls-4" d="M273.631,527.408c.591-4.837,3.793-8.275,6.44-12.01a75.175,75.175,0,0,1,17.319-13.191c1-.584,1.692-.9,1.013-2.58-1.09-2.69-1.219-5.753-2.089-8.555-1.07-3.444-2.588-6.7-6.338-8.129a6.835,6.835,0,0,0-5.708.014,8.431,8.431,0,0,0-6.973,5.462l-.224,1.073a1.593,1.593,0,0,0-.458.137c-.866,1.352-1.189,2.692.08,4q.234.1.458.215a1.449,1.449,0,0,0,.141.532c.614,1.694,2.039,2.989,2.371,4.822l-.246.022a2.675,2.675,0,0,0,.013,2.963l.258.006-.011.606a.6.6,0,0,0-.1.534l-1.255,1.833-.575.512a7.942,7.942,0,0,1-4.716.849,7.03,7.03,0,0,1-5.313-6.265c-.085-5.119-.22-10.365,4.079-14.279,1.56.613,3.405-1.217,3.607-3.578a18.54,18.54,0,0,1,10.229-4.089,1.921,1.921,0,0,0,2.544-.016l-1.981-.1c.431-.7,1.259-.316,1.821-.66l5.978.029c7.147,1.829,9.849,7.221,11.422,13.78,3.063,12.772,6.35,25.491,9.551,38.23.169.673.386,1.335.607,1.992.4,1.177,1,2.319,2.334,2.419a3.649,3.649,0,0,0,3.51-1.765c.986-1.68,1.761-3.485,2.626-5.236,1.149-.783,1.925.4,2.9.551-.552,5.475-3.748,9.413-7.613,12.924a12.627,12.627,0,0,1-2.531,1.415l-.6.014-.01-.264a2.5,2.5,0,0,0-2.915.031l-.662.137c-3.248-.891-3.659-3.989-5.019-6.388-.126.021-.416,0-.459.086-3.095,6.6-7.765,11.439-14.973,13.459a28.851,28.851,0,0,1-9.463-1.19c-4.779-2.659-8.359-6.225-9.056-11.973A13.456,13.456,0,0,0,273.631,527.408Zm7.188-1.8a7.8,7.8,0,0,0,0,5.388c.9,6.689,3.679,9.476,10.778,10.791.677.694,1.416.776,2.592.212l-2.12-.268a19.538,19.538,0,0,1,2.036-.437c6.494-.706,13.509-8.177,10.947-16.537-1.694-5.525-2.905-11.2-4.234-16.832-.371-1.57-.794-2.023-2.336-1.073-4.342,2.675-8.665,5.375-12.281,9.012C283.5,518.58,281.236,521.6,280.819,525.606Z" transform="translate(-152.4 -242.4)"/><path class="cls-4" d="M313.8,367.2c.5,5.278,2.236,10.278,3.475,15.387q3.9,16.1,8,32.148c.884,3.465,1.814,7.007,5.47,8.8l-.692.408c.858.1,1.47,1.173,2.49.624.787,1.213-.192,1.3-.964,1.491q-6.669,1.685-13.341,3.354c-.66.164-1.418.478-1.769-.469-.238-.643-.533-1.336.344-1.8,3.732-1.991,3.415-5.487,2.741-8.679-1.523-7.214-3.46-14.34-5.16-21.519-.332-1.4-.94-1.744-2.308-1.391q-8.253,2.133-16.542,4.118c-1.335.321-1.8.878-1.435,2.29,1.863,7.137,3.506,14.336,5.542,21.423.9,3.13,2.208,6.392,6.474,6.356.758-.006.973.542,1.109,1.166.149.681,0,1.245-.728,1.382-5.212.984-10.132,3.338-15.557,3.318.054-.59-.124-1.458.2-1.727,3.735-3.117,2.58-7.05,1.726-10.789-1.71-7.483-3.634-14.917-5.5-22.365-1.983-7.931-3.873-15.889-6.055-23.765-.853-3.08-1.687-6.53-5.9-7.015-1.123-.129-1.014-1.313-1.236-2.145l3.606-1.256c3.493-.81,6.98-1.644,10.482-2.412.837-.183,1.859-1.108,2.463.483.476,1.255-.418,1.5-1.148,2.008-2.512,1.759-2.562,4.393-2.2,7.013.812,5.843,2.624,11.466,4.019,17.179,1.612,6.6,1.651,6.584,8.219,4.924,3.772-.954,7.537-1.938,11.33-2.8,1.651-.374,2.28-.873,1.753-2.787-1.772-6.442-3.177-12.987-4.992-19.416-.972-3.44-2.127-7.076-6.8-7.2-1-.026-.967-.857-1.1-1.505-.186-.873.554-.942,1.095-1.079q6.817-1.726,13.646-3.407c.585-.145,1.246-.277,1.527.46.248.65.436,1.373-.317,1.879-1.119.751-2.032,1.623-1.957,3.12A5.82,5.82,0,0,0,313.8,367.2Zm-27.137,3.231-.29.119v3.629l.29-.009Zm7.494,59.55a4.1,4.1,0,0,0,0-3.578Z" transform="translate(-152.4 -242.4)"/><path class="cls-4" d="M287.381,289.115c1.4-.364,1.811-1.437,1.884-2.709.061-1.075.816-1.28,1.641-1.353,1.015-.089,1.023.789,1.181,1.416q2.454,9.721,4.861,19.454c.216.872.513,1.758-.848,2.084-1.405.337-1.4-.739-1.709-1.518a25.616,25.616,0,0,0-3.837-7.075c-3.034-3.673-6.808-5.78-11.72-5.44a11.35,11.35,0,0,0-10.618,8.962c-1.075,5.894,1.035,10.485,6.486,12.709,7.014,2.862,14.2,5.307,21.313,7.923,6.253,2.3,10.371,6.569,12.028,13.078a24.705,24.705,0,0,1,.394,2.94A5.384,5.384,0,0,0,308.41,345c-.87,8.572-7.418,14.709-17.357,16.271l-.717-.209a5.5,5.5,0,0,0-4.726-.007.289.289,0,0,0-.026.3l-3.694-.708c.524-.265,1.287.291,1.724-.566a2.2,2.2,0,0,0-2.213.51c-1.989.312-3.68.6-4.349,3.189-.5,1.925-1.988,1.4-2.831-.241-1.365-6.653-3.029-13.232-4.9-19.76-.11-1.058.583-1.352,1.428-1.526,1.059-.218,1.084.667,1.312,1.262a27.043,27.043,0,0,0,4.886,8.532,14.411,14.411,0,0,0,18.021,3.031c7.3-4.1,8.046-15.561,1.363-21.086a18.227,18.227,0,0,0-5.233-2.861c-6.157-2.351-12.348-4.62-18.44-7.13-6.126-2.524-9.712-7.129-10.419-13.822a8.261,8.261,0,0,0-.026-6.581c1.033-7.793,7.846-13.79,16.226-14.27,1.185-.068,2.372-.089,3.558-.132C283.8,289.536,285.6,290.189,287.381,289.115Z" transform="translate(-152.4 -242.4)"/><path class="cls-1" d="M274.18,367.8c.222.832.113,2.016,1.236,2.145,4.216.485,5.05,3.935,5.9,7.015,2.182,7.876,4.072,15.834,6.055,23.765,1.862,7.448,3.786,14.882,5.5,22.365.854,3.739,2.009,7.672-1.726,10.789-.322.269-.144,1.137-.2,1.727l-.737.053q-5.9-23.608-11.778-47.222c-1.695-6.856-3.263-13.743-4.889-20.616Z" transform="translate(-152.4 -242.4)"/><path class="cls-5" d="M274.18,367.8l-.638.021c-2.335-8.062-4.3-16.214-6.03-24.427,1.082-2.053,1.185.369,1.812.4,1.868,6.528,3.532,13.107,4.9,19.76-.22,2.675,2.8,1.5,3.565,2.993Z" transform="translate(-152.4 -242.4)"/><path class="cls-6" d="M258.668,467.057c-.074.677,2.225-.564.933,1.467-1.778,2.8-.283,4.872,3.057,4.873q21.738.011,43.476,0c5.026,0,5.531-.674,4.284-5.709.977,1.169.977,1.169.979,6.808l-.608.033c-.852-.74-1.89-.525-2.868-.525q-22.923-.017-45.845,0c-.978,0-2.017-.216-2.866.531l-1.223.3-.015.012C258.762,472.3,257.418,469.564,258.668,467.057Z" transform="translate(-152.4 -242.4)"/><path class="cls-1" d="M257.987,474.837l1.223-.3,51.579-.006.608-.033c1.119-2.506.514-5.086.33-7.648,1.457,2.941,1.217,5.934.272,8.949-1.019-.933-2.277-.577-3.437-.579q-23.059-.033-46.12-.018A13.894,13.894,0,0,1,257.987,474.837Z" transform="translate(-152.4 -242.4)"/><path class="cls-7" d="M257.987,474.837a13.894,13.894,0,0,0,4.455.366q23.059.009,46.12.018c1.16,0,2.418-.354,3.437.579q-25.248,0-50.5-.019c-1.222,0-2.651.486-3.531-.932Z" transform="translate(-152.4 -242.4)"/><path class="cls-8" d="M213.687,405a.555.555,0,0,1,.01-.512l45.458-.039a3.245,3.245,0,0,1-.035,2.332c-.649-1.725-2.029-1.808-3.618-1.8C241.564,405.017,227.626,405,213.687,405Z" transform="translate(-152.4 -242.4)"/><path class="cls-1" d="M174.592,475.221l-.476-.51,39.475-.168.582.017.6,0q.009.321.016.642Z" transform="translate(-152.4 -242.4)"/><path class="cls-9" d="M174.592,475.221l40.2-.015c-1.02.936-2.28.576-3.442.579q-18.144.054-36.287.05Z" transform="translate(-152.4 -242.4)"/><path class="cls-1" d="M392.984,412.727c-4.492,1.17-8.915,2.631-13.55,3.192l-1.418-.644,13-3.139C391.707,412.221,392.443,412.149,392.984,412.727Z" transform="translate(-152.4 -242.4)"/><path class="cls-10" d="M306.643,307.788a18.484,18.484,0,0,1-.037-8.386A13.277,13.277,0,0,1,306.643,307.788Z" transform="translate(-152.4 -242.4)"/><path class="cls-1" d="M247.117,442.978l-1.95-1.879c.785-1.239,1.95-1.977,3.106-.84C249.765,441.727,247.411,442.009,247.117,442.978Z" transform="translate(-152.4 -242.4)"/><path class="cls-11" d="M275.4,482.4c-.2,2.361-2.047,4.191-3.607,3.578A13.449,13.449,0,0,1,275.4,482.4Z" transform="translate(-152.4 -242.4)"/><path class="cls-1" d="M273.028,506.524a7.942,7.942,0,0,0,4.716-.849c.227.712.991,1.46.224,2.159s-1.277.167-1.908-.507C275.31,506.526,273.9,507.376,273.028,506.524Z" transform="translate(-152.4 -242.4)"/><path class="cls-12" d="M253.784,466.8a6.706,6.706,0,0,1,.046-6l.507.906a8.109,8.109,0,0,0,.013,3.582Q254.067,466.044,253.784,466.8Z" transform="translate(-152.4 -242.4)"/><path class="cls-1" d="M269.393,449.423a18.971,18.971,0,0,1,.039,10.274Z" transform="translate(-152.4 -242.4)"/><path class="cls-13" d="M262.216,303.605a8.261,8.261,0,0,1,.026,6.581A11.366,11.366,0,0,1,262.216,303.605Z" transform="translate(-152.4 -242.4)"/><path class="cls-14" d="M214.776,474.564l-.6,0c.019-1.65-.049-3.308.079-4.949.14-1.793-.54-2.554-2.33-2.274q-.093-.219-.17-.445l.608-.23,2.239.161.171,7.776Z" transform="translate(-152.4 -242.4)"/><path class="cls-12" d="M308.41,345a5.384,5.384,0,0,1,.027-5.417A8.838,8.838,0,0,1,308.41,345Z" transform="translate(-152.4 -242.4)"/><path class="cls-15" d="M290.827,361.716c.221.168,1.049.349.528.526-2.165.735-4.428-.012-6.657.035-.194,0,.083-.392.34-.444a4.354,4.354,0,0,1,.585-.042Z" transform="translate(-152.4 -242.4)"/><path class="cls-1" d="M326.939,527.537c-.972-.151-1.748-1.334-2.9-.551a11.235,11.235,0,0,0,1.087-.91c.509-.543.868-1.491,1.832-.867C328.077,525.932,327.155,526.758,326.939,527.537Z" transform="translate(-152.4 -242.4)"/><path class="cls-10" d="M287.381,289.115c-1.777,1.074-3.581.421-5.381.088A5.892,5.892,0,0,1,287.381,289.115Z" transform="translate(-152.4 -242.4)"/><path class="cls-16" d="M214.77,474.6l-.171-7.776C215.99,469.385,215.647,471.986,214.77,474.6Z" transform="translate(-152.4 -242.4)"/><path class="cls-1" d="M308.365,549.5l-6.52-.017C304.02,548.858,306.2,548.033,308.365,549.5Z" transform="translate(-152.4 -242.4)"/><path class="cls-17" d="M277.071,489.492l.224-1.073a7.727,7.727,0,0,1,0,5.958,1.449,1.449,0,0,1-.141-.532Q277.111,491.669,277.071,489.492Z" transform="translate(-152.4 -242.4)"/><path class="cls-1" d="M293.992,477.566l-5.978-.029A7.206,7.206,0,0,1,293.992,477.566Z" transform="translate(-152.4 -242.4)"/><path class="cls-18" d="M313.8,367.2a5.82,5.82,0,0,1,.009-4.2A3.567,3.567,0,0,1,313.8,367.2Z" transform="translate(-152.4 -242.4)"/><path class="cls-1" d="M332.473,526.569q.227.188.465.361l.114,1.657c-.247,1.507.249,3.112-.6,4.54Q332.462,529.85,332.473,526.569Z" transform="translate(-152.4 -242.4)"/><path class="cls-1" d="M237.593,437.969l-5.989.013A6.966,6.966,0,0,1,237.593,437.969Z" transform="translate(-152.4 -242.4)"/><path class="cls-1" d="M284.268,482.957a6.835,6.835,0,0,1,5.708-.014Z" transform="translate(-152.4 -242.4)"/><path class="cls-1" d="M202.249,454.79a13.277,13.277,0,0,1,.5-5.535C202.6,451.1,203.326,453.028,202.249,454.79Z" transform="translate(-152.4 -242.4)"/><path class="cls-19" d="M290.827,361.716l-5.2.075a.894.894,0,0,1-.039-.429.289.289,0,0,1,.026-.3l4.726.007.717.209Q290.949,361.5,290.827,361.716Z" transform="translate(-152.4 -242.4)"/><path class="cls-17" d="M279.677,502.8l.011-.606c.889-.832.452-1.867.434-2.838C281.175,500.655,281.365,501.847,279.677,502.8Z" transform="translate(-152.4 -242.4)"/><path class="cls-1" d="M278.319,505.163l1.255-1.833c.214.725.814,1.675.553,2.124C279.7,506.183,278.945,505.314,278.319,505.163Z" transform="translate(-152.4 -242.4)"/><path class="cls-17" d="M316.193,541.89l.6-.014c-1.221,1.818-2.661,1.374-4.151.4C313.84,542.269,315.1,542.854,316.193,541.89Z" transform="translate(-152.4 -242.4)"/><path class="cls-1" d="M210.851,464.978c-.935.346-1.225.562-1.388.49-.326-.144-.766-.407-.827-.692-.1-.482.3-.691.763-.517C209.766,464.4,210.105,464.6,210.851,464.978Z" transform="translate(-152.4 -242.4)"/><path class="cls-20" d="M332.54,424.564c-1.02.549-1.632-.527-2.49-.624l.692-.408C331.581,423.46,332.548,423.163,332.54,424.564Z" transform="translate(-152.4 -242.4)"/><path class="cls-1" d="M206.428,447.114c1.138.145,2.39-.5,3.408.486C208.694,447.482,207.471,447.926,206.428,447.114Z" transform="translate(-152.4 -242.4)"/><path class="cls-21" d="M354.586,423.034a1.038,1.038,0,0,1-1.773,0C353.405,422.543,354,422.312,354.586,423.034Z" transform="translate(-152.4 -242.4)"/><path class="cls-22" d="M316.193,541.89c-1.092.964-2.353.379-3.549.385a3.7,3.7,0,0,1-.038-.481l.662-.136a5.9,5.9,0,0,0,2.915-.032Z" transform="translate(-152.4 -242.4)"/><path class="cls-1" d="M295.628,442.147a6.955,6.955,0,0,1,3.761-.5C298.235,442.578,296.9,442.081,295.628,442.147Z" transform="translate(-152.4 -242.4)"/><path class="cls-1" d="M210.068,448.089c.018.417.373.943-.27,1.153-.165.054-.619-.206-.628-.342-.041-.617.511-.645.937-.779Z" transform="translate(-152.4 -242.4)"/><path class="cls-13" d="M302.024,313.769c1.945.186.817,1.087.423,1.816Z" transform="translate(-152.4 -242.4)"/><path class="cls-1" d="M212.36,466.662l-.608.23-2.565-.628C210.259,466.275,211.377,465.932,212.36,466.662Z" transform="translate(-152.4 -242.4)"/><path class="cls-1" d="M253.784,466.8q.284-.755.566-1.513c-.065,1.121.388,2.327-.534,3.31Z" transform="translate(-152.4 -242.4)"/><path class="cls-1" d="M254.337,461.7l-.507-.906.012-2.387C254.721,459.4,254.3,460.586,254.337,461.7Z" transform="translate(-152.4 -242.4)"/><path class="cls-1" d="M202.769,460.891a4.583,4.583,0,0,1-.514-3.08C203.088,458.728,202.716,459.845,202.769,460.891Z" transform="translate(-152.4 -242.4)"/><path class="cls-23" d="M286.193,478.2l1.981.1a1.921,1.921,0,0,1-2.544.016A1.2,1.2,0,0,1,286.193,478.2Z" transform="translate(-152.4 -242.4)"/><path class="cls-24" d="M280.122,499.352c.018.971.455,2.006-.434,2.838l-.258-.006a5.286,5.286,0,0,0-.013-2.963l.246-.022Q279.89,499.286,280.122,499.352Z" transform="translate(-152.4 -242.4)"/><path class="cls-1" d="M292.865,441.385a1.777,1.777,0,0,0,1.735.9c-.08.4-.244.759-.734.634A1.332,1.332,0,0,1,292.865,441.385Z" transform="translate(-152.4 -242.4)"/><path class="cls-1" d="M319.944,544.247c-1.029.518-.868,1.446-.8,2.34C318.378,545.452,318.272,544.544,319.944,544.247Z" transform="translate(-152.4 -242.4)"/><path class="cls-1" d="M319.234,547.1c.4.693.676,1.558,1.767,1.353,0,.16,0,.32,0,.48l-1.8.063Z" transform="translate(-152.4 -242.4)"/><path class="cls-25" d="M281.4,360.6a2.2,2.2,0,0,1,2.213-.51c-.437.857-1.2.3-1.724.566l-.254.055Z" transform="translate(-152.4 -242.4)"/><path class="cls-1" d="M412.893,504.348q-4.4-18-8.8-35.993-4.724-19.158-9.506-38.3a25.291,25.291,0,0,1-.959-7.688c.183-2.911,1.086-5.422,3.892-6.954,1.751-.955,1.449-2.476-.617-3.727l-1.5-.667c1.567-1.515.936-4.344-1.218-5.461a7.116,7.116,0,0,0-5.976,0c-4.133-.588-6.7-3.321-8.788-6.587a36.615,36.615,0,0,1-4.322-11.118q-13.115-52.591-26.266-105.172c-.593-2.357.032-3.1,2.242-3.588,4.861-1.071,9.669-2.388,14.5-3.605l1.019-.117c1.3,0,2.595,0,3.892,0a12.686,12.686,0,0,1,11.488,6.335,62.394,62.394,0,0,1,5.32,11.694c.943,2.591,2.787,3.195,5.111,1.8,1.376-.824.409-1.765.164-2.587-2.713-9.086-5.475-18.157-8.214-27.234-.142-.47-.2-.966-.291-1.45a134.2,134.2,0,0,1,25.244,18.444,107.732,107.732,0,0,1,13.777,14.429c.08,1.794,1.2,2.689,2.762,3.2q.154.265.308.531l-1.919,1.111c-4.657-2.861-9.3-5.771-15.032-5.862a9.068,9.068,0,0,0-5.4.01,28.522,28.522,0,0,0-3.241.353c-9.084,2.019-15.122,7.776-18.941,15.961-6.411,13.744-6.649,28.088-3.717,42.679l.144.994c2.409,14.622,6.739,28.567,14.751,41.17a53.191,53.191,0,0,0,15.5,16.083c11.722,7.77,26.275,6.216,35.124-3.827,5.436-6.17,8.3-13.562,9.591-21.61a.34.34,0,0,0,.067-.452,28.862,28.862,0,0,0,1.091-9.159,28.385,28.385,0,0,0,0-6.579l.054-4.217c1.069-.931.179-2.38.872-3.5.474.652.407,1.656,1.434,1.7a107.907,107.907,0,0,1,2.945,21.327c1.552,29-4.216,56.436-17.979,82.09a149.573,149.573,0,0,1-25.7,34.875,7.03,7.03,0,0,0-2.124,3.76Q413.278,505.9,412.893,504.348Z" transform="translate(-152.4 -242.4)"/><path class="cls-1" d="M363.484,537.562c-.242-2.174-.687-3.439-3.648-3.159-10.559,1-15.351-2.528-17.921-12.756q-8.748-34.8-17.365-69.637c-.262-1.051-.347-2.147-.515-3.222a5.766,5.766,0,0,0-.016-5.383c.74-6.319,5.18-9.2,10.531-11.067,1.561-.542,2.566-1.15,2.65-2.852a3.876,3.876,0,0,0,2.571.333,9.835,9.835,0,0,1,10.535,7.737q8.478,34.124,16.955,68.247,0,3.6,0,7.194c-.726,1.662-1.462,3.359-3.284,4.09-1.607.645-.918,1.727-.66,2.733.356,1.383,1.3.836,2.153.625,5.33-1.327,10.668-2.625,15.987-4,.639-.165,1.828,0,1.564-1.291-.184-.9-.087-2.046-1.527-2.113-6.208-.288-8.017-5.034-9.368-9.79-2.238-7.874-4.1-15.856-6.079-23.8q-4.284-17.151-8.525-34.311a6.245,6.245,0,0,1-.254-3.2l54.906,64.472a1.026,1.026,0,0,1,.154.541,137.4,137.4,0,0,1-28.947,21.951,104.1,104.1,0,0,1-17.949,8.769C364.832,536.793,364.144,537.412,363.484,537.562Z" transform="translate(-152.4 -242.4)"/><path class="cls-4" d="M454.218,367.2l-.054,4.217a8.34,8.34,0,0,0,0,6.579,28.862,28.862,0,0,1-1.091,9.159l-.283-2.076a1.9,1.9,0,0,0,.216,2.528c-1.3,8.048-4.155,15.44-9.591,21.61-8.849,10.043-23.4,11.6-35.124,3.827a53.191,53.191,0,0,1-15.5-16.083c-8.012-12.6-12.342-26.548-14.751-41.17a1.97,1.97,0,0,0,.151-2.551l-.3,1.557c-2.932-14.591-2.694-28.935,3.717-42.679,3.819-8.185,9.857-13.942,18.941-15.961a28.522,28.522,0,0,1,3.241-.353,5.488,5.488,0,0,0,5.4-.01c5.737.091,10.375,3,15.032,5.861l7.22,6.362c8.4,9.234,13.308,20.354,17.286,31.981A236.339,236.339,0,0,1,454.218,367.2Zm-12.7,22.65.293,2.069a1.891,1.891,0,0,0-.226-2.518,151.6,151.6,0,0,0-.561-18.6c.653-.691.738-1.43.146-2.621l-.217,2.122c-.175-.772-.385-1.537-.518-2.316-2.626-15.419-6.322-30.532-13.055-44.743a51,51,0,0,0-12.426-17.113c-9.353-8.108-19.42-5.406-23.539,6.288-.792,2.248-1.323,4.588-1.974,6.885-.087-.374-.173-1.071-.263-1.071-.566,0-.392.531-.343.809a7.418,7.418,0,0,0,.5,1.35,88.626,88.626,0,0,0-.478,12.556A173.96,173.96,0,0,0,402.1,387.723,55.641,55.641,0,0,0,414,405.932c2.695,2.684,5.571,5.184,9.608,5.638a6.451,6.451,0,0,0,4.772-.033c4.453-.738,7.062-3.732,9.1-7.427C439.936,399.668,440.506,394.694,441.52,389.845Zm1.124-9.235-.231.009v4.839l.231-.013Z" transform="translate(-152.4 -242.4)"/><path class="cls-26" d="M363.484,537.562c.66-.15,1.348-.769,1.949.112-8.994,4.222-18.5,6.86-28.174,8.9A96.587,96.587,0,0,1,321,548.934c0-.16,0-.32,0-.48q19.26-4.858,38.52-9.726C360.855,538.39,362.164,537.953,363.484,537.562Z" transform="translate(-152.4 -242.4)"/><path class="cls-27" d="M454.218,367.2a236.339,236.339,0,0,0-5.477-27.2c3.273,6.065,4.74,12.748,6.532,19.316.544,1.995.841,4.058,1.251,6.09-1.027-.047-.96-1.051-1.434-1.7C454.4,364.815,455.287,366.264,454.218,367.2Z" transform="translate(-152.4 -242.4)"/><path class="cls-4" d="M213.591,474.543l-39.475.168c-.855-.35-.52-1.185-.73-1.8.506-1.847-.321-3.811.488-5.632.08.079.16.158.238.237q0,2.909,0,5.82c.958,1.087,2.242.637,3.383.641,10.878.034,21.757.01,32.636.034C211.3,474.017,212.544,473.68,213.591,474.543Z" transform="translate(-152.4 -242.4)"/><path class="cls-28" d="M431.455,308.012l-7.22-6.362,1.919-1.11A23.5,23.5,0,0,1,431.455,308.012Z" transform="translate(-152.4 -242.4)"/><path class="cls-28" d="M425.846,300.009c-1.562-.514-2.682-1.409-2.762-3.2A11.211,11.211,0,0,1,425.846,300.009Z" transform="translate(-152.4 -242.4)"/><path class="cls-29" d="M412.329,506.954a1.026,1.026,0,0,0-.154-.541c.685-.533.59-1.337.718-2.064q.386,1.551.772,3.1C413,507.87,412.752,507.181,412.329,506.954Z" transform="translate(-152.4 -242.4)"/><path class="cls-1" d="M217.109,394.2l20.151-75.829c1.274.1.913,1.04,1.045,1.581q9.03,37.118,18,74.248a.255.255,0,0,0-.3-.023H217.4A.245.245,0,0,0,217.109,394.2Z" transform="translate(-152.4 -242.4)"/><path class="cls-30" d="M213.591,474.543c-1.047-.863-2.3-.526-3.461-.529-10.879-.024-21.758,0-32.636-.034-1.141,0-2.425.446-3.384-.64a2.831,2.831,0,0,0,.486.059c11.758,0,23.516.031,35.274-.043,1.283-.008,3.324.938,3.628-1.384.223-1.7.879-3.969-2.14-4.15,0,0-.023-.225.02-.25a4.23,4.23,0,0,1,.543-.234c1.791-.281,2.471.48,2.331,2.273-.128,1.641-.06,3.3-.079,4.949Z" transform="translate(-152.4 -242.4)"/><path class="cls-31" d="M213.664,403.987c.678-1.042,1.752-.777,2.712-.778q20.008-.019,40.018,0c.967,0,2.021-.242,2.788.659-5.991-.022-11.982-.08-17.972-.059C232.028,403.839,222.846,403.924,213.664,403.987Z" transform="translate(-152.4 -242.4)"/><path class="cls-32" d="M213.664,403.987c9.182-.063,18.364-.148,27.546-.179,5.99-.021,11.981.037,17.972.059a2.014,2.014,0,0,1-.027.58l-45.458.039A1.988,1.988,0,0,1,213.664,403.987Z" transform="translate(-152.4 -242.4)"/><path class="cls-33" d="M217.226,395.459c-.384-.387-.644-.785-.117-1.256a.245.245,0,0,1,.29-.022c.415.8,1.182.609,1.843.609q17.463.018,34.926,0c.663,0,1.428.184,1.845-.611a.255.255,0,0,1,.3.023c.484.476.293.881-.135,1.26Z" transform="translate(-152.4 -242.4)"/><path class="cls-20" d="M217.226,395.459l38.947,0a3.4,3.4,0,0,1-2.562.532q-16.912.01-33.825,0A3.377,3.377,0,0,1,217.226,395.459Z" transform="translate(-152.4 -242.4)"/><path class="cls-12" d="M174.6,473.4a2.831,2.831,0,0,1-.486-.059q0-2.911,0-5.821C175.432,469.384,174.15,471.462,174.6,473.4Z" transform="translate(-152.4 -242.4)"/><path class="cls-34" d="M201.166,458.175v-4.822l.209-.017v4.827Z" transform="translate(-152.4 -242.4)"/><path class="cls-10" d="M388.21,405.561a7.116,7.116,0,0,1,5.976,0A8.915,8.915,0,0,1,388.21,405.561Z" transform="translate(-152.4 -242.4)"/><path class="cls-35" d="M395.4,411.018l1.5.667a10.039,10.039,0,0,1-3.915,1.042c-.541-.578-1.277-.506-1.967-.591A12.341,12.341,0,0,1,395.4,411.018Z" transform="translate(-152.4 -242.4)"/><path class="cls-36" d="M368.21,274.359h3.542A4.129,4.129,0,0,1,368.21,274.359Z" transform="translate(-152.4 -242.4)"/><path class="cls-37" d="M364.724,399.334v2.922l-.287.023v-3.053Z" transform="translate(-152.4 -242.4)"/><path class="cls-23" d="M366.593,275.374l-1.019.117-1.559-.3A2.007,2.007,0,0,1,366.593,275.374Z" transform="translate(-152.4 -242.4)"/><path class="cls-38" d="M367.262,513q0-3.6,0-7.194A9.78,9.78,0,0,1,367.262,513Z" transform="translate(-152.4 -242.4)"/><path class="cls-1" d="M244.13,471.582c-1.022,5.28-7.437,9.866-12.49,8.947a2.855,2.855,0,0,1-2.342-2.416c-2.418-9.7-4.809-19.4-7.262-29.083-.527-2.084.242-3.278,2.194-3.83,2.107-.6,4.231-1.135,6.347-1.7l.836,0c4.646.772,7.461,3.74,9.336,7.816a35.978,35.978,0,0,1,3.416,12.492A11.72,11.72,0,0,0,244.13,471.582Z" transform="translate(-152.4 -242.4)"/><path class="cls-10" d="M244.13,471.582a11.72,11.72,0,0,1,.035-7.77A14.936,14.936,0,0,1,244.13,471.582Z" transform="translate(-152.4 -242.4)"/><path class="cls-25" d="M231.413,443.5l-.836,0a2.288,2.288,0,0,1-.861-.185c-.75-.541.007-.482.252-.491.877-.034,1.757-.014,2.708-.014C232.394,443.568,231.808,443.323,231.413,443.5Z" transform="translate(-152.4 -242.4)"/><path class="cls-10" d="M324.019,443.405a5.766,5.766,0,0,1,.016,5.383A8.774,8.774,0,0,1,324.019,443.405Z" transform="translate(-152.4 -242.4)"/><path class="cls-39" d="M333.052,528.587l-.114-1.657c.091-.372.152-1.051.281-1.064.6-.062.34.494.362.785A2.226,2.226,0,0,1,333.052,528.587Z" transform="translate(-152.4 -242.4)"/><path class="cls-40" d="M301.335,440.651a2.92,2.92,0,0,1-2.311.172C299.6,440.074,300.292,440.42,301.335,440.651Z" transform="translate(-152.4 -242.4)"/><path class="cls-23" d="M273.631,527.408a13.456,13.456,0,0,1,.005,8.38A14.017,14.017,0,0,1,273.631,527.408Z" transform="translate(-152.4 -242.4)"/><path class="cls-1" d="M291.6,541.785c-7.1-1.315-9.882-4.1-10.778-10.791a5.694,5.694,0,0,0,0-5.388c.417-4.007,2.679-7.026,5.38-9.744,3.616-3.637,7.939-6.337,12.281-9.012,1.542-.95,1.965-.5,2.336,1.073,1.329,5.631,2.54,11.307,4.234,16.832,2.562,8.36-4.453,15.831-10.947,16.537a19.538,19.538,0,0,0-2.036.437A.358.358,0,0,0,291.6,541.785Z" transform="translate(-152.4 -242.4)"/><path class="cls-10" d="M280.819,525.606a5.694,5.694,0,0,1,0,5.388A7.8,7.8,0,0,1,280.819,525.606Z" transform="translate(-152.4 -242.4)"/><path class="cls-41" d="M276.693,493.63c-1.269-1.309-.946-2.649-.08-4Q276.654,491.63,276.693,493.63Z" transform="translate(-152.4 -242.4)"/><path class="cls-42" d="M276.693,493.63q-.04-2-.08-4a1.593,1.593,0,0,1,.458-.137q.039,2.176.08,4.353Q276.928,493.727,276.693,493.63Z" transform="translate(-152.4 -242.4)"/><path class="cls-43" d="M279.417,499.221a5.286,5.286,0,0,1,.013,2.963A2.675,2.675,0,0,1,279.417,499.221Z" transform="translate(-152.4 -242.4)"/><path class="cls-12" d="M316.183,541.626a5.9,5.9,0,0,1-2.915.032A2.5,2.5,0,0,1,316.183,541.626Z" transform="translate(-152.4 -242.4)"/><path class="cls-21" d="M291.6,541.785a.358.358,0,0,1,.472-.056l2.12.268C293.011,542.561,292.272,542.479,291.6,541.785Z" transform="translate(-152.4 -242.4)"/><path class="cls-39" d="M286.662,370.431v3.739l-.29.009V370.55Z" transform="translate(-152.4 -242.4)"/><path class="cls-44" d="M294.156,429.981V426.4A4.1,4.1,0,0,1,294.156,429.981Z" transform="translate(-152.4 -242.4)"/><path class="cls-21" d="M290.336,361.065l-4.726-.007A5.5,5.5,0,0,1,290.336,361.065Z" transform="translate(-152.4 -242.4)"/><path class="cls-4" d="M310.789,474.532l-51.579.006c.849-.747,1.888-.531,2.866-.531q22.923-.017,45.845,0C308.9,474.007,309.937,473.792,310.789,474.532Z" transform="translate(-152.4 -242.4)"/><path class="cls-21" d="M409.2,295.789a5.488,5.488,0,0,1-5.4.01A9.068,9.068,0,0,1,409.2,295.789Z" transform="translate(-152.4 -242.4)"/><path class="cls-23" d="M454.167,377.991a8.34,8.34,0,0,1,0-6.579A28.385,28.385,0,0,1,454.167,377.991Z" transform="translate(-152.4 -242.4)"/><path class="cls-23" d="M453.009,387.6a1.9,1.9,0,0,1-.216-2.528l.283,2.076A.34.34,0,0,1,453.009,387.6Z" transform="translate(-152.4 -242.4)"/><path class="cls-45" d="M377.9,354.792l.3-1.557a1.97,1.97,0,0,1-.151,2.551Z" transform="translate(-152.4 -242.4)"/><path class="cls-1" d="M441.026,370.793a151.6,151.6,0,0,1,.561,18.6.34.34,0,0,0-.067.449c-1.014,4.849-1.584,9.823-4.037,14.265-2.041,3.695-4.65,6.689-9.1,7.427a4.767,4.767,0,0,0-4.772.033c-4.037-.454-6.913-2.954-9.608-5.638a55.641,55.641,0,0,1-11.9-18.209,173.96,173.96,0,0,1-13.249-54.784,88.626,88.626,0,0,1,.478-12.556l.11-1.088c.651-2.3,1.182-4.637,1.974-6.885,4.119-11.694,14.186-14.4,23.539-6.288a51,51,0,0,1,12.426,17.113c6.733,14.211,10.429,29.324,13.055,44.743.133.779.343,1.544.518,2.316A.434.434,0,0,0,441.026,370.793Z" transform="translate(-152.4 -242.4)"/><path class="cls-10" d="M423.608,411.57a4.767,4.767,0,0,1,4.772-.033A6.451,6.451,0,0,1,423.608,411.57Z" transform="translate(-152.4 -242.4)"/><path class="cls-39" d="M442.644,380.61v4.835l-.231.013v-4.839Z" transform="translate(-152.4 -242.4)"/><path class="cls-34" d="M389.443,319.3l-.11,1.088a7.418,7.418,0,0,1-.5-1.35c-.049-.278-.223-.813.343-.809C389.27,318.224,389.356,318.921,389.443,319.3Z" transform="translate(-152.4 -242.4)"/><path class="cls-25" d="M441.026,370.793a.434.434,0,0,1-.071-.5l.217-2.122C441.764,369.363,441.679,370.1,441.026,370.793Z" transform="translate(-152.4 -242.4)"/><path class="cls-43" d="M441.52,389.845a.34.34,0,0,1,.067-.449,1.891,1.891,0,0,1,.226,2.518Z" transform="translate(-152.4 -242.4)"/><path class="cls-46" d="M256.013,394.18c-.417.8-1.182.61-1.845.611q-17.463.017-34.926,0c-.661,0-1.428.192-1.843-.609Z" transform="translate(-152.4 -242.4)"/></svg>